<svg width="1612" height="2336" viewBox="0 0 1612 2336" fill="none" xmlns="http://www.w3.org/2000/svg">
<line y1="-10" x2="1199.13" y2="-10" transform="matrix(-0.585425 0.810726 -0.713795 -0.700355 702 0)" stroke="url(#paint0_linear_28_65)" stroke-width="20"/>
<line y1="-10" x2="745.85" y2="-10" transform="matrix(0.783 0.622022 -0.504719 0.863284 694 22.1476)" stroke="url(#paint1_linear_28_65)" stroke-width="20"/>
<line y1="-10" x2="698.048" y2="-10" transform="matrix(-0.279351 -0.960189 0.929972 -0.36763 1484 1141.19)" stroke="url(#paint2_linear_28_65)" stroke-width="20"/>
<line y1="-10" x2="1106.98" y2="-10" transform="matrix(-0.087626 0.996153 -0.992933 -0.118679 1464 1138.86)" stroke="url(#paint3_linear_28_65)" stroke-width="20"/>
<line y1="-10" x2="959.665" y2="-10" transform="matrix(0.995955 0.0898566 -0.0662532 0.997803 429.217 2160.01)" stroke="url(#paint4_linear_28_65)" stroke-width="20"/>
<line y1="-10" x2="1265.44" y2="-10" transform="matrix(-0.339802 -0.940497 0.897661 -0.440686 448 2154.15)" stroke="url(#paint5_linear_28_65)" stroke-width="20"/>
<line y1="-10" x2="1199.13" y2="-10" transform="matrix(-0.585425 0.810726 -0.713795 -0.700355 702 0)" stroke="url(#paint6_linear_28_65)" stroke-width="20"/>
<line y1="-10" x2="745.85" y2="-10" transform="matrix(0.783 0.622022 -0.504719 0.863284 694 22.1476)" stroke="url(#paint7_linear_28_65)" stroke-width="20"/>
<line y1="-10" x2="698.048" y2="-10" transform="matrix(-0.279351 -0.960189 0.929972 -0.36763 1484 1141.19)" stroke="url(#paint8_linear_28_65)" stroke-width="20"/>
<line y1="-10" x2="1106.98" y2="-10" transform="matrix(-0.087626 0.996153 -0.992933 -0.118679 1464 1138.86)" stroke="url(#paint9_linear_28_65)" stroke-width="20"/>
<line y1="-10" x2="959.665" y2="-10" transform="matrix(0.995955 0.0898566 -0.0662532 0.997803 429.217 2160.01)" stroke="url(#paint10_linear_28_65)" stroke-width="20"/>
<line y1="-10" x2="1265.44" y2="-10" transform="matrix(-0.339802 -0.940497 0.897661 -0.440686 448 2154.15)" stroke="url(#paint11_linear_28_65)" stroke-width="20"/>
<line y1="-10" x2="1835.19" y2="-10" transform="matrix(-0.117154 -0.993114 0.983996 -0.178191 275 2024.21)" stroke="url(#paint12_linear_28_65)" stroke-width="20"/>
<line y1="-10" x2="1835.19" y2="-10" transform="matrix(-0.117154 -0.993114 0.983996 -0.178191 275 2024.21)" stroke="url(#paint13_linear_28_65)" stroke-width="20"/>
<line y1="-10" x2="991.985" y2="-10" transform="matrix(0.951628 0.307253 -0.205824 0.978589 256 2024.21)" stroke="url(#paint14_linear_28_65)" stroke-width="20"/>
<line y1="-10" x2="1921.2" y2="-10" transform="matrix(-0.204039 0.978963 -0.952438 -0.304732 1592 448.219)" stroke="url(#paint15_linear_28_65)" stroke-width="20"/>
<line y1="-10" x2="1551.71" y2="-10" transform="matrix(-0.987296 -0.158894 0.104269 -0.994549 1592 448.219)" stroke="url(#paint16_linear_28_65)" stroke-width="20"/>
<defs>
<linearGradient id="paint0_linear_28_65" x1="0" y1="0.5" x2="1199.13" y2="0.5" gradientUnits="userSpaceOnUse">
<stop stop-color="#FFF8DC"/>
<stop offset="0.331731" stop-color="#FFE135"/>
<stop offset="0.677885" stop-color="#FFD700"/>
<stop offset="0.9999" stop-color="#E6BE00"/>
</linearGradient>
<linearGradient id="paint1_linear_28_65" x1="0" y1="0.5" x2="745.85" y2="0.5" gradientUnits="userSpaceOnUse">
<stop stop-color="#FFF8DC"/>
<stop offset="0.331731" stop-color="#FFE135"/>
<stop offset="0.677885" stop-color="#FFD700"/>
<stop offset="0.9999" stop-color="#E6BE00"/>
</linearGradient>
<linearGradient id="paint2_linear_28_65" x1="0" y1="0.5" x2="698.048" y2="0.5" gradientUnits="userSpaceOnUse">
<stop stop-color="#FFF8DC"/>
<stop offset="0.331731" stop-color="#FFE135"/>
<stop offset="0.677885" stop-color="#FFD700"/>
<stop offset="0.9999" stop-color="#E6BE00"/>
</linearGradient>
<linearGradient id="paint3_linear_28_65" x1="0" y1="0.5" x2="1106.98" y2="0.5" gradientUnits="userSpaceOnUse">
<stop stop-color="#FFF8DC"/>
<stop offset="0.331731" stop-color="#FFE135"/>
<stop offset="0.677885" stop-color="#FFD700"/>
<stop offset="0.9999" stop-color="#E6BE00"/>
</linearGradient>
<linearGradient id="paint4_linear_28_65" x1="0" y1="0.5" x2="959.665" y2="0.5" gradientUnits="userSpaceOnUse">
<stop stop-color="#FFF8DC"/>
<stop offset="0.331731" stop-color="#FFE135"/>
<stop offset="0.677885" stop-color="#FFD700"/>
<stop offset="0.9999" stop-color="#E6BE00"/>
</linearGradient>
<linearGradient id="paint5_linear_28_65" x1="0" y1="0.5" x2="1265.44" y2="0.5" gradientUnits="userSpaceOnUse">
<stop stop-color="#FFF8DC"/>
<stop offset="0.331731" stop-color="#FFE135"/>
<stop offset="0.677885" stop-color="#FFD700"/>
<stop offset="0.9999" stop-color="#E6BE00"/>
</linearGradient>
<linearGradient id="paint6_linear_28_65" x1="0" y1="0.5" x2="1199.13" y2="0.5" gradientUnits="userSpaceOnUse">
<stop stop-color="#FFF8DC"/>
<stop offset="0.331731" stop-color="#FFE135"/>
<stop offset="0.677885" stop-color="#FFD700"/>
<stop offset="0.9999" stop-color="#E6BE00"/>
</linearGradient>
<linearGradient id="paint7_linear_28_65" x1="0" y1="0.5" x2="745.85" y2="0.5" gradientUnits="userSpaceOnUse">
<stop stop-color="#FFF8DC"/>
<stop offset="0.331731" stop-color="#FFE135"/>
<stop offset="0.677885" stop-color="#FFD700"/>
<stop offset="0.9999" stop-color="#E6BE00"/>
</linearGradient>
<linearGradient id="paint8_linear_28_65" x1="0" y1="0.5" x2="698.048" y2="0.5" gradientUnits="userSpaceOnUse">
<stop stop-color="#FFF8DC"/>
<stop offset="0.331731" stop-color="#FFE135"/>
<stop offset="0.677885" stop-color="#FFD700"/>
<stop offset="0.9999" stop-color="#E6BE00"/>
</linearGradient>
<linearGradient id="paint9_linear_28_65" x1="0" y1="0.5" x2="1106.98" y2="0.5" gradientUnits="userSpaceOnUse">
<stop stop-color="#FFF8DC"/>
<stop offset="0.331731" stop-color="#FFE135"/>
<stop offset="0.677885" stop-color="#FFD700"/>
<stop offset="0.9999" stop-color="#E6BE00"/>
</linearGradient>
<linearGradient id="paint10_linear_28_65" x1="0" y1="0.5" x2="959.665" y2="0.5" gradientUnits="userSpaceOnUse">
<stop stop-color="#FFF8DC"/>
<stop offset="0.331731" stop-color="#FFE135"/>
<stop offset="0.677885" stop-color="#FFD700"/>
<stop offset="0.9999" stop-color="#E6BE00"/>
</linearGradient>
<linearGradient id="paint11_linear_28_65" x1="0" y1="0.5" x2="1265.44" y2="0.5" gradientUnits="userSpaceOnUse">
<stop stop-color="#FFF8DC"/>
<stop offset="0.331731" stop-color="#FFE135"/>
<stop offset="0.677885" stop-color="#FFD700"/>
<stop offset="0.9999" stop-color="#E6BE00"/>
</linearGradient>
<linearGradient id="paint12_linear_28_65" x1="0" y1="0.5" x2="1835.19" y2="0.5" gradientUnits="userSpaceOnUse">
<stop stop-color="#FFF8DC"/>
<stop offset="0.331731" stop-color="#FFE135"/>
<stop offset="0.677885" stop-color="#FFD700"/>
<stop offset="0.9999" stop-color="#E6BE00"/>
</linearGradient>
<linearGradient id="paint13_linear_28_65" x1="0" y1="0.5" x2="1835.19" y2="0.5" gradientUnits="userSpaceOnUse">
<stop stop-color="#FFF8DC"/>
<stop offset="0.331731" stop-color="#FFE135"/>
<stop offset="0.677885" stop-color="#FFD700"/>
<stop offset="0.9999" stop-color="#E6BE00"/>
</linearGradient>
<linearGradient id="paint14_linear_28_65" x1="0" y1="0.5" x2="991.985" y2="0.5" gradientUnits="userSpaceOnUse">
<stop stop-color="#FFF8DC"/>
<stop offset="0.331731" stop-color="#FFE135"/>
<stop offset="0.677885" stop-color="#FFD700"/>
<stop offset="0.9999" stop-color="#E6BE00"/>
</linearGradient>
<linearGradient id="paint15_linear_28_65" x1="0" y1="0.5" x2="1921.2" y2="0.5" gradientUnits="userSpaceOnUse">
<stop stop-color="#FFF8DC"/>
<stop offset="0.331731" stop-color="#FFE135"/>
<stop offset="0.677885" stop-color="#FFD700"/>
<stop offset="0.9999" stop-color="#E6BE00"/>
</linearGradient>
<linearGradient id="paint16_linear_28_65" x1="0" y1="0.5" x2="1551.71" y2="0.5" gradientUnits="userSpaceOnUse">
<stop stop-color="#FFF8DC"/>
<stop offset="0.331731" stop-color="#FFE135"/>
<stop offset="0.677885" stop-color="#FFD700"/>
<stop offset="0.9999" stop-color="#E6BE00"/>
</linearGradient>
</defs>
</svg>
